<svg version="1.1" id="Layer_1" xmlns="http://www.w3.org/2000/svg" xmlns:xlink="http://www.w3.org/1999/xlink" x="0px" y="0px"
	 width="100%" viewBox="0 0 1296 1296" enable-background="new 0 0 1296 1296" xml:space="preserve">
<path fill="#000000" opacity="1.000000" stroke="none" 
	d="
M727.000000,1297.000000 
	C484.666656,1297.000000 242.833328,1297.000000 1.000000,1297.000000 
	C1.000000,865.000000 1.000000,433.000000 1.000000,1.000000 
	C433.000000,1.000000 865.000000,1.000000 1297.000000,1.000000 
	C1297.000000,433.000000 1297.000000,865.000000 1297.000000,1297.000000 
	C1107.166626,1297.000000 917.333313,1297.000000 727.000000,1297.000000 
M373.118622,624.674072 
	C372.263550,619.079712 371.374023,613.490234 370.565491,607.889160 
	C370.025604,604.148926 371.596375,602.938477 375.422577,603.188904 
	C381.116913,603.561829 386.853760,603.285645 393.106750,603.285645 
	C392.284882,601.987122 391.905640,601.039978 391.238922,600.385986 
	C377.922089,587.323730 364.518494,574.349548 351.273132,561.215576 
	C348.552155,558.517517 346.688171,558.974487 344.197418,561.415405 
	C330.872711,574.473389 317.434113,587.414978 304.069885,600.432678 
	C303.318542,601.164612 302.878204,602.215698 302.304749,603.100220 
	C308.214722,603.100220 313.821533,603.369629 319.387177,603.007141 
	C323.205688,602.758484 324.481567,604.243652 324.632019,607.763672 
	C324.866333,613.246216 324.867126,618.795898 325.766937,624.183594 
	C331.636505,659.327881 347.939606,688.644958 374.870514,712.147949 
	C393.261475,728.197937 414.867188,738.093140 438.454010,741.511475 
	C458.049774,744.351440 478.087646,743.883789 497.842041,738.052795 
	C526.128113,729.703308 549.294312,714.433350 567.995178,691.891052 
	C570.621033,688.725830 570.501160,687.267822 566.558960,685.363037 
	C556.369568,680.439636 546.349854,675.147766 536.407349,669.736572 
	C529.418823,665.933167 528.984131,665.616760 523.734680,671.459961 
	C512.439148,684.032898 497.706024,690.701233 481.881500,694.401978 
	C459.499023,699.636475 437.632568,698.085083 417.279297,685.711731 
	C394.207062,671.685181 378.988159,652.119324 373.118622,624.674072 
M831.564087,706.445435 
	C831.683289,710.106750 832.039673,713.779297 831.866089,717.426697 
	C831.606873,722.871277 834.104370,725.764771 839.021545,727.973511 
	C862.162964,738.368286 886.255981,741.520752 911.258118,738.103821 
	C924.264709,736.326294 936.706238,732.483765 947.638916,725.067932 
	C959.636963,716.929382 968.388306,706.042114 970.623962,691.361206 
	C974.238159,667.627625 968.058838,645.113281 940.655029,632.143311 
	C929.579712,626.901489 917.767090,623.192261 906.216675,618.987061 
	C895.446289,615.065796 884.222168,612.188965 876.010315,603.275818 
	C867.573364,594.118347 867.021423,579.638428 875.009277,570.946045 
	C884.619019,560.488770 905.383057,556.696655 918.166687,562.789368 
	C926.424866,566.725220 930.561096,574.115173 934.774109,581.498596 
	C937.991211,587.136597 940.647156,593.139954 944.322449,598.447876 
	C945.691040,600.424377 949.293579,601.808777 951.785278,601.679871 
	C953.184082,601.607544 955.278809,597.994629 955.533813,595.799561 
	C956.531860,587.207397 956.906189,578.543457 957.543945,569.908508 
	C957.935059,564.613403 956.187439,560.977234 950.620667,559.426880 
	C945.658508,558.044983 940.921570,555.870605 935.983826,554.382507 
	C908.475342,546.092590 881.932861,546.812561 856.676575,562.307922 
	C827.035767,580.493286 819.259766,628.126160 855.847839,650.998047 
	C869.244385,659.372498 884.346741,662.845581 898.832336,668.185669 
	C905.812317,670.758789 912.887878,673.620117 919.101685,677.621887 
	C938.094177,689.853394 931.997314,713.922668 920.243103,721.850830 
	C902.107117,734.083313 868.781555,732.390137 856.345947,707.623596 
	C852.465881,699.895996 847.713928,692.609985 843.692139,684.948120 
	C841.743347,681.235474 838.678589,680.227356 835.441284,681.424866 
	C833.831482,682.020325 832.338989,684.984924 832.156006,687.001526 
	C831.600586,693.122131 831.709656,699.302979 831.564087,706.445435 
M739.873474,563.999634 
	C735.169067,565.661255 730.338745,567.045654 725.812988,569.100769 
	C723.525208,570.139648 720.528687,572.111877 720.074158,574.156006 
	C719.222107,577.988647 723.079041,578.578796 725.957947,579.437012 
	C732.073975,581.260315 736.331177,584.910400 736.704834,591.644043 
	C737.257751,601.607727 737.798401,611.585388 737.864746,621.560303 
	C738.050598,649.533630 738.055176,677.508728 737.991882,705.482910 
	C737.970764,714.822998 735.201782,722.595215 724.960510,725.456970 
	C723.590210,725.839966 722.209045,726.780212 721.224731,727.829834 
	C718.832764,730.380676 719.773499,733.325623 723.189331,734.222290 
	C724.458862,734.555603 725.826721,734.626831 727.149841,734.627319 
	C750.127563,734.635742 773.105286,734.622986 796.082947,734.582275 
	C797.740417,734.579346 799.526306,734.660645 801.017090,734.088989 
	C802.401245,733.558167 804.065735,732.401428 804.477539,731.148987 
	C804.773193,730.250000 803.429932,728.498535 802.414124,727.568054 
	C801.353271,726.596191 799.858215,726.019958 798.467224,725.500671 
	C793.351807,723.591309 789.993042,719.918884 789.073975,714.693359 
	C788.101135,709.161377 787.509827,703.478577 787.543579,697.866394 
	C787.817871,652.246460 788.252197,606.627380 788.701660,561.008667 
	C788.799561,551.072021 785.649536,548.779419 776.169800,551.984680 
	C764.344482,555.982971 752.469910,559.835388 739.873474,563.999634 
M512.047913,479.997437 
	C512.425598,481.071075 512.510254,482.422852 513.225342,483.176270 
	C522.660889,493.117950 528.999817,505.016663 534.395142,517.386780 
	C544.905029,541.483337 549.520996,566.934082 550.992615,593.064819 
	C551.611938,604.061096 551.650085,604.186157 540.498901,604.157654 
	C536.691772,604.147949 532.884644,604.156128 528.042786,604.156128 
	C529.303894,606.172852 529.550232,606.812134 529.996643,607.245056 
	C543.142944,619.993469 556.247986,632.785583 569.504761,645.418396 
	C574.259583,649.949463 574.899963,649.711487 579.655273,645.239258 
	C589.714966,635.778381 599.847961,626.395386 609.906006,616.932678 
	C613.799316,613.269836 617.570801,609.477661 621.397827,605.744385 
	C621.145630,605.207703 620.893494,604.671021 620.641296,604.134338 
	C615.385437,604.134338 610.117676,603.914185 604.877319,604.199097 
	C600.080200,604.460022 598.119812,602.741272 597.687805,597.772156 
	C596.043335,578.858459 591.363770,560.549133 582.461060,543.832825 
	C566.791321,514.410156 544.079651,492.195892 512.047913,479.997437 
M399.763275,484.627869 
	C382.468903,493.779327 367.571320,505.714264 355.340118,521.580811 
	C368.040741,529.056580 379.791718,535.964172 391.531708,542.890198 
	C394.479126,544.628967 397.093903,544.363586 399.774353,542.145447 
	C403.101105,539.392578 406.623352,536.873047 410.096710,534.300659 
	C443.082703,509.871490 493.858063,511.803284 523.235046,543.364014 
	C524.052612,544.242310 525.178345,544.833679 527.064941,546.226807 
	C526.661499,543.166382 526.707214,541.135620 526.098389,539.324890 
	C523.984741,533.038574 521.774719,526.777527 519.363464,520.599731 
	C513.474670,505.511963 505.117401,492.086517 492.656219,481.448212 
	C485.460327,475.304932 477.692627,471.220306 467.741943,472.000671 
	C460.792419,472.545685 453.763855,472.210327 446.773804,472.086121 
	C430.159760,471.790924 415.062897,477.164764 399.763275,484.627869 
M679.709045,705.116333 
	C678.064148,694.656189 673.165161,686.053894 663.722229,681.106506 
	C650.199768,674.021667 631.889771,677.003235 622.164917,693.316833 
	C612.560547,709.428406 621.899536,733.398132 639.949646,737.890686 
	C661.439880,743.239319 681.272644,728.022217 679.709045,705.116333 
M761.539062,528.202332 
	C786.970459,528.029663 796.777466,505.423431 787.452271,487.569183 
	C778.559204,470.542419 748.920898,469.718262 737.789124,485.731384 
	C731.956909,494.121002 731.070862,503.142517 735.437012,512.213135 
	C740.418579,522.562256 749.240356,527.586182 761.539062,528.202332 
M748.996826,833.917969 
	C750.010559,824.606628 747.801147,815.091919 750.467957,805.669556 
	C752.835388,807.824219 754.426453,810.093140 755.841797,812.466919 
	C759.930969,819.324524 763.762939,826.346619 768.136169,833.015381 
	C769.140259,834.546631 771.869263,835.415771 773.887207,835.581421 
	C774.688477,835.647156 776.500549,832.978943 776.513977,831.542969 
	C776.619385,820.233398 776.518738,808.917114 776.155762,797.613281 
	C776.100769,795.901306 774.361694,794.243347 773.401672,792.560425 
	C772.622131,794.385742 771.238831,796.188354 771.169434,798.040222 
	C770.894897,805.357666 771.088135,812.691406 770.976746,820.017090 
	C770.950012,821.773438 770.418579,823.522095 770.119324,825.274292 
	C768.149292,824.341797 767.409180,823.332214 766.777039,822.259094 
	C761.459351,813.232666 756.259399,804.133972 750.754761,795.223389 
	C749.903076,793.844849 747.682068,793.312256 746.094299,792.388428 
	C745.317261,793.922729 743.895325,795.444763 743.865845,796.993286 
	C743.643799,808.646362 743.623779,820.305176 743.705139,831.961060 
	C743.730164,835.542419 745.344666,837.014893 748.996826,833.917969 
M414.108887,814.658569 
	C417.922882,820.909790 421.593384,827.257019 425.661987,833.337891 
	C426.565552,834.688232 428.872955,835.099304 430.533966,835.942810 
	C431.142090,834.390503 432.237152,832.851440 432.279694,831.283752 
	C432.568359,820.648010 432.701782,810.006287 432.720551,799.366211 
	C432.724609,797.049255 432.061523,794.731140 431.705688,792.413513 
	C431.008453,792.324890 430.311249,792.236206 429.614014,792.147522 
	C428.986786,793.908020 427.826477,795.668274 427.825775,797.429016 
	C427.822998,804.579224 428.301056,811.729675 428.298828,818.879883 
	C428.298340,820.415833 427.036224,821.951416 426.355316,823.487183 
	C425.216614,822.419800 423.757690,821.542847 422.991394,820.254089 
	C418.144714,812.102234 413.574646,803.783264 408.600800,795.711975 
	C407.635956,794.146240 405.293793,793.429260 403.586975,792.320801 
	C402.742706,794.118225 401.216034,795.896790 401.165741,797.716187 
	C400.857422,808.865845 400.802368,820.025391 400.897736,831.179688 
	C400.910065,832.620911 402.277039,834.050537 403.016510,835.485535 
	C404.070160,834.107361 405.939240,832.783447 406.035126,831.341614 
	C406.432281,825.369202 406.211884,819.358582 406.397125,813.367493 
	C406.458801,811.373108 407.055511,809.395264 407.407623,807.409851 
	C407.954987,807.258362 408.502350,807.106873 409.049713,806.955383 
	C410.623474,809.299866 412.197235,811.644287 414.108887,814.658569 
M292.394745,830.354126 
	C292.954498,831.376404 293.263275,832.811279 294.125763,833.335815 
	C295.978760,834.462891 298.117188,835.120728 300.138763,835.970642 
	C300.799927,834.280701 302.006378,832.599548 302.033844,830.899414 
	C302.214020,819.745728 302.253204,808.585571 302.027344,797.433899 
	C301.992950,795.736084 300.345215,794.070923 299.443726,792.390686 
	C298.574402,794.130066 297.048859,795.833984 296.952667,797.615112 
	C296.593750,804.259399 296.781219,810.931335 296.586365,817.587708 
	C296.533417,819.396484 295.857758,821.187012 295.467896,822.985901 
	C295.025330,823.070129 294.582794,823.154358 294.140228,823.238586 
	C293.170563,821.863220 292.089905,820.552246 291.249695,819.101868 
	C286.494934,810.894226 281.874573,802.607178 276.994781,794.475281 
	C276.295410,793.309814 274.437927,792.839233 273.116394,792.047058 
	C272.349213,793.388611 271.437012,794.672180 270.868042,796.093079 
	C270.514832,796.975159 270.635834,798.064880 270.622620,799.062500 
	C270.479279,809.882141 270.257812,820.702637 270.338501,831.520874 
	C270.348541,832.867676 271.982788,834.202271 272.864410,835.542542 
	C273.906097,834.271301 275.346832,833.145569 275.878174,831.688232 
	C276.417908,830.207947 276.096710,828.400391 276.089447,826.736450 
	C276.066986,821.581177 275.924957,816.423889 276.042816,811.272339 
	C276.069061,810.125977 276.969299,808.999634 277.467133,807.864075 
	C278.568542,808.675232 280.052002,809.254395 280.708679,810.335571 
	C284.593750,816.732605 288.286926,823.246155 292.394745,830.354126 
M941.075012,827.683105 
	C943.468201,831.012939 944.406616,836.161377 951.282776,835.558777 
	C949.325012,831.988586 947.913269,829.068787 946.189148,826.346863 
	C943.205811,821.637024 942.391846,817.793457 947.644653,813.589050 
	C951.634644,810.395386 952.448669,805.080383 950.432068,800.271606 
	C948.578308,795.850891 945.164734,792.309265 940.052185,791.917908 
	C935.275269,791.552185 930.403809,791.724487 925.644287,792.271545 
	C924.293213,792.426819 922.165466,794.693848 922.129761,796.038574 
	C921.808167,808.145081 921.799072,820.262817 921.949280,832.374146 
	C921.963074,833.488403 923.717407,834.581116 924.663513,835.683899 
	C925.552551,834.511963 927.041626,833.419617 927.209961,832.151978 
	C927.600586,829.210388 926.990479,826.120972 927.495911,823.214966 
	C927.817383,821.366760 929.161682,818.581238 930.494568,818.294373 
	C932.338989,817.897461 935.098206,818.930298 936.564697,820.309143 
	C938.420166,822.053650 939.370117,824.761230 941.075012,827.683105 
M536.929016,836.155945 
	C540.084961,836.159241 543.242371,836.227112 546.396484,836.152100 
	C552.586853,836.005066 557.585938,833.207275 560.055603,827.692810 
	C564.283081,818.253113 564.542419,808.726196 558.335510,799.722351 
	C553.065247,792.077148 545.113892,791.671753 537.014709,791.650635 
	C532.432556,791.638672 529.901489,793.660889 530.047729,798.620789 
	C530.365845,809.405762 530.622314,820.195312 530.664978,830.983948 
	C530.680481,834.909424 532.302734,836.471985 536.929016,836.155945 
M480.673615,796.518311 
	C481.261017,795.523621 481.848389,794.528931 482.435791,793.534241 
	C481.192017,792.844971 479.950378,791.570068 478.704071,791.565491 
	C472.553162,791.542969 466.379883,791.640137 460.267487,792.237488 
	C459.068542,792.354675 457.205597,794.844238 457.172119,796.275208 
	C456.895691,808.092285 457.007904,819.917908 456.931091,831.740540 
	C456.912048,834.672791 458.184052,836.030029 461.114166,836.016479 
	C465.110352,835.997925 469.106873,836.090332 473.103394,836.113281 
	C476.274689,836.131531 479.446167,836.116943 482.617584,836.116943 
	C482.670441,835.422607 482.723297,834.728271 482.776184,834.033936 
	C480.173096,830.621643 476.090485,832.051514 472.669250,832.023193 
	C462.432068,831.938354 462.580933,832.079651 462.693024,821.835266 
	C462.738708,817.660889 464.538727,816.096130 468.430481,816.266357 
	C471.088806,816.382690 473.783844,816.755615 476.391296,816.434937 
	C477.537079,816.294128 478.505646,814.712646 479.554688,813.785217 
	C478.502197,812.959229 477.532806,811.594238 476.380402,811.416565 
	C473.771484,811.014282 471.059204,811.005615 468.412872,811.186646 
	C464.270081,811.470215 462.605499,809.571045 462.782898,805.610779 
	C462.842377,804.282471 462.790100,802.946106 462.730835,801.616028 
	C462.581482,798.265869 464.144104,796.747742 467.509308,796.790955 
	C471.668640,796.844421 475.830231,796.720337 480.673615,796.518311 
M1118.595703,811.119873 
	C1116.434692,811.104980 1114.273315,811.115417 1112.112915,811.070496 
	C1106.192505,810.947449 1105.526123,810.210876 1105.526855,803.889893 
	C1105.527466,797.752075 1106.223633,797.031006 1112.348022,796.903015 
	C1114.840820,796.850891 1117.376099,797.098328 1119.811157,796.706299 
	C1121.139160,796.492432 1122.297729,795.225952 1123.532837,794.434204 
	C1122.331909,793.401184 1121.162231,791.527039 1119.924683,791.481079 
	C1114.622803,791.284241 1109.265869,791.331726 1104.008667,791.958191 
	C1102.515015,792.136169 1100.181396,794.523376 1100.117798,795.979736 
	C1099.603027,807.760010 1099.486206,819.559387 1099.372437,831.354126 
	C1099.344604,834.234253 1100.861694,836.056946 1103.985474,836.068665 
	C1109.470947,836.089233 1114.959351,836.193726 1120.439453,836.028442 
	C1121.423950,835.998718 1122.374512,834.839905 1123.340820,834.202454 
	C1122.368530,833.510864 1121.450073,832.336060 1120.413696,832.220886 
	C1117.619995,831.910400 1114.776123,832.036926 1111.952026,832.016724 
	C1105.771484,831.972534 1105.160645,831.372864 1105.081177,825.131958 
	C1105.064209,823.802673 1105.114380,822.472595 1105.106079,821.143066 
	C1105.086426,818.036316 1106.579102,816.611145 1109.719727,816.696411 
	C1112.873901,816.781982 1116.062500,816.908569 1119.174561,816.522766 
	C1120.263794,816.387695 1121.170654,814.782166 1122.160767,813.848022 
	C1121.230347,812.948059 1120.300049,812.048035 1118.595703,811.119873 
M894.418823,791.459290 
	C889.432922,791.583069 884.447632,791.760010 879.460999,791.812866 
	C875.785034,791.851868 873.927917,793.496643 873.932007,797.270203 
	C873.944336,808.581299 873.953979,819.893127 873.826111,831.203064 
	C873.786133,834.734741 875.614380,835.961243 878.732117,835.996765 
	C884.888000,836.066956 891.044800,836.124695 897.200500,836.082275 
	C898.047302,836.076477 898.890076,835.470154 899.734680,835.141846 
	C899.804626,834.731628 899.874573,834.321350 899.944519,833.911072 
	C898.475464,833.369080 897.034424,832.474487 895.531860,832.355225 
	C891.889954,832.066162 888.198486,832.342773 884.570129,831.970642 
	C882.970276,831.806519 880.704468,831.032959 880.060303,829.829712 
	C876.423340,823.035583 880.324951,816.831665 887.994202,816.771606 
	C888.326965,816.768982 888.666504,816.810242 888.991455,816.758972 
	C891.576965,816.351807 895.824768,817.715942 895.717041,813.720032 
	C895.604492,809.544861 891.325500,811.290283 888.846375,811.238892 
	C879.732056,811.049988 879.054565,810.389771 879.547546,801.663696 
	C879.732239,798.395813 880.993225,796.728577 884.362244,796.771179 
	C887.688904,796.813171 891.043518,796.967957 894.333008,796.600159 
	C895.873657,796.427979 897.289856,795.142456 898.762390,794.361511 
	C897.561035,793.420105 896.359680,792.478699 894.418823,791.459290 
M611.375000,795.181702 
	C602.872375,789.394165 596.443848,789.776794 588.884949,796.520325 
	C581.481140,803.125427 579.373718,816.494202 584.067383,827.082275 
	C588.497070,837.074951 606.226318,840.244080 613.962280,832.411865 
	C614.657837,831.707581 615.321594,830.938293 615.843933,830.101685 
	C621.982788,820.268494 620.063782,803.655396 611.375000,795.181702 
M228.579620,836.238098 
	C234.592133,836.650269 240.087997,836.176941 244.018768,830.474487 
	C249.873322,821.981140 250.148758,807.190430 244.193909,798.796814 
	C239.890442,792.730835 231.794907,789.708862 225.336105,791.757446 
	C216.748337,794.481323 212.980835,799.405518 212.864746,808.166382 
	C212.807434,812.490784 212.802536,816.817078 212.853271,821.141541 
	C212.975708,831.574890 217.348694,836.003052 228.579620,836.238098 
M826.342407,809.220215 
	C828.818237,811.140686 831.155823,813.284729 833.805969,814.923279 
	C836.907104,816.840637 840.598083,817.913147 843.421814,820.130676 
	C845.235657,821.555176 847.247375,824.695618 846.814087,826.501587 
	C846.304260,828.626282 843.396240,831.393005 841.259827,831.649902 
	C837.148865,832.144165 832.845154,831.101868 828.629700,830.623596 
	C827.180786,830.459167 825.756714,830.076111 824.321289,829.792908 
	C824.004639,830.391052 823.687927,830.989197 823.371216,831.587402 
	C825.150391,832.846863 826.794189,834.865479 828.736206,835.211792 
	C833.122131,835.994019 837.651917,836.036560 842.129700,836.220276 
	C847.920410,836.457947 850.797729,832.549500 852.908203,828.015076 
	C854.811462,823.925903 852.851196,820.374695 850.059814,817.644653 
	C847.869019,815.501892 844.993530,813.996277 842.271667,812.477356 
	C839.667358,811.024109 836.371094,810.448547 834.302368,808.504517 
	C832.409485,806.725830 830.526367,803.409180 830.932068,801.189331 
	C831.263977,799.372803 834.819092,797.384766 837.226562,796.915344 
	C839.789856,796.415527 842.680725,797.632751 845.434814,798.059937 
	C847.077820,798.314758 848.732971,798.491882 851.311707,798.823425 
	C845.399414,789.524170 837.406433,790.553284 831.685852,793.486511 
	C824.813599,797.010254 823.034485,801.879822 826.342407,809.220215 
M981.220093,835.134338 
	C984.468750,836.747192 987.313660,836.320068 988.486389,832.677795 
	C992.350037,820.678162 996.021606,808.615417 999.603760,796.528564 
	C999.969604,795.294067 999.235657,793.733704 999.012085,792.324524 
	C998.465637,792.221558 997.919189,792.118530 997.372803,792.015503 
	C996.158142,794.231323 994.549988,796.322327 993.800171,798.685608 
	C991.191711,806.907104 988.940979,815.241699 986.391113,823.482727 
	C986.011597,824.709229 984.756592,825.664917 983.906616,826.745850 
	C983.034790,825.678284 981.753845,824.742126 981.361267,823.520508 
	C979.583801,817.989075 978.117554,812.358521 976.419739,806.800171 
	C975.255005,802.986938 974.146851,799.117981 972.495422,795.511108 
	C971.845337,794.091248 969.786133,793.316589 968.368591,792.248108 
	C968.186890,793.871826 967.554932,795.602844 967.911133,797.098450 
	C968.832825,800.968506 970.085876,804.770996 971.394653,808.535156 
	C974.436340,817.283752 977.588806,825.993713 981.220093,835.134338 
M1052.788330,810.682129 
	C1054.310669,798.895447 1062.081909,794.121460 1072.827637,798.283508 
	C1073.736328,798.635498 1074.905640,798.314209 1075.953979,798.305725 
	C1075.757446,797.243286 1075.899902,795.912903 1075.307251,795.163574 
	C1072.290527,791.348328 1068.201782,790.549500 1063.632202,791.538635 
	C1050.892456,794.296204 1043.985474,806.808838 1047.447021,821.747192 
	C1050.896606,836.633423 1058.041382,836.966492 1071.996216,835.888855 
	C1075.001099,835.656799 1077.557373,834.195374 1077.873291,829.983643 
	C1075.153198,830.794250 1072.989014,831.531677 1070.778198,832.081970 
	C1061.117676,834.486572 1054.379517,829.981506 1053.030029,820.088440 
	C1052.650513,817.305908 1052.804932,814.450500 1052.788330,810.682129 
M655.048950,815.498230 
	C655.025696,812.165771 655.029846,808.832764 654.973999,805.500854 
	C654.833679,797.134827 654.830933,797.275757 663.319946,796.785095 
	C665.100342,796.682190 666.796509,795.123047 668.531494,794.234985 
	C666.896423,793.225708 665.289551,791.405090 663.621460,791.347290 
	C656.302307,791.093445 648.958374,791.196960 641.640564,791.538330 
	C640.011230,791.614380 638.451355,793.177979 636.859497,794.056702 
	C638.525452,794.984131 640.123962,796.542725 641.869080,796.729248 
	C649.234741,797.516663 649.295166,797.366882 649.341736,804.701477 
	C649.396790,813.365112 649.190918,822.035767 649.511292,830.688049 
	C649.579041,832.516418 651.435059,834.278564 652.467102,836.071289 
	C653.294861,834.378662 654.709717,832.729126 654.837891,830.985107 
	C655.191284,826.176819 655.006287,821.329041 655.048950,815.498230 
M334.540619,831.654419 
	C333.829803,829.588074 332.572388,827.540344 332.501587,825.452271 
	C332.174469,815.803467 332.313416,806.137817 331.917969,796.493286 
	C331.857513,795.018921 329.874176,793.623352 328.780212,792.191345 
	C328.049042,793.532959 326.702698,794.865540 326.682983,796.217468 
	C326.508087,808.201965 326.442017,820.192993 326.737122,832.172363 
	C326.769775,833.497253 329.179016,835.757202 330.628174,835.878052 
	C336.255096,836.347107 341.941711,836.218079 347.600525,836.081604 
	C348.637024,836.056641 349.647675,834.959167 350.670288,834.356812 
	C349.611725,833.547546 348.597351,832.119629 347.486664,832.040222 
	C343.513947,831.756470 339.508545,831.929932 334.540619,831.654419 
M714.472961,832.989746 
	C715.546326,833.924194 716.619751,834.858582 717.693054,835.793030 
	C718.438049,834.436218 719.812988,833.086792 719.829041,831.721436 
	C719.965820,820.095764 719.861389,808.467163 719.804138,796.839539 
	C719.800964,796.187195 719.757019,795.414917 719.417786,794.909424 
	C718.729736,793.884094 717.826111,793.003418 717.011353,792.063110 
	C716.236755,793.001831 715.102844,793.830383 714.773132,794.905518 
	C714.297424,796.456543 714.283508,798.186768 714.284180,799.840393 
	C714.288574,810.641113 714.350098,821.441772 714.472961,832.989746 
M1019.098755,825.144348 
	C1019.233643,827.462646 1019.144775,829.825562 1019.593811,832.081299 
	C1019.833679,833.286194 1021.001770,834.306335 1021.750916,835.409912 
	C1022.763733,834.363464 1024.638184,833.332397 1024.657104,832.268311 
	C1024.866211,820.497681 1024.909790,808.719116 1024.641968,796.950867 
	C1024.605713,795.360474 1022.614563,793.814636 1021.528625,792.248230 
	C1020.710876,792.521240 1019.893188,792.794312 1019.075439,793.067383 
	C1019.075439,803.449463 1019.075439,813.831543 1019.098755,825.144348 
M371.765320,816.497253 
	C371.748840,821.822266 371.593597,827.153320 371.827484,832.467346 
	C371.877106,833.594788 373.346832,834.659790 374.162323,835.753601 
	C374.921539,834.696167 376.307861,833.659424 376.343628,832.578003 
	C376.728485,820.938538 376.999969,809.292114 377.019470,797.647156 
	C377.022308,795.968506 375.532593,794.287354 374.733612,792.607361 
	C373.670898,794.249084 371.780487,795.848816 371.694794,797.539978 
	C371.392273,803.509094 371.708160,809.509644 371.765320,816.497253 
z"/>
<path fill="#73AD9D" opacity="1.000000" stroke="none" 
	d="
M373.180176,625.096558 
	C378.988159,652.119324 394.207062,671.685181 417.279297,685.711731 
	C437.632568,698.085083 459.499023,699.636475 481.881500,694.401978 
	C497.706024,690.701233 512.439148,684.032898 523.734680,671.459961 
	C528.984131,665.616760 529.418823,665.933167 536.407349,669.736572 
	C546.349854,675.147766 556.369568,680.439636 566.558960,685.363037 
	C570.501160,687.267822 570.621033,688.725830 567.995178,691.891052 
	C549.294312,714.433350 526.128113,729.703308 497.842041,738.052795 
	C478.087646,743.883789 458.049774,744.351440 438.454010,741.511475 
	C414.867188,738.093140 393.261475,728.197937 374.870514,712.147949 
	C347.939606,688.644958 331.636505,659.327881 325.766937,624.183594 
	C324.867126,618.795898 324.866333,613.246216 324.632019,607.763672 
	C324.481567,604.243652 323.205688,602.758484 319.387177,603.007141 
	C313.821533,603.369629 308.214722,603.100220 302.304749,603.100220 
	C302.878204,602.215698 303.318542,601.164612 304.069885,600.432678 
	C317.434113,587.414978 330.872711,574.473389 344.197418,561.415405 
	C346.688171,558.974487 348.552155,558.517517 351.273132,561.215576 
	C364.518494,574.349548 377.922089,587.323730 391.238922,600.385986 
	C391.905640,601.039978 392.284882,601.987122 393.106750,603.285645 
	C386.853760,603.285645 381.116913,603.561829 375.422577,603.188904 
	C371.596375,602.938477 370.025604,604.148926 370.565491,607.889160 
	C371.374023,613.490234 372.263550,619.079712 373.180176,625.096558 
z"/>
<path fill="#B06124" opacity="1.000000" stroke="none" 
	d="
M831.562012,705.952881 
	C831.709656,699.302979 831.600586,693.122131 832.156006,687.001526 
	C832.338989,684.984924 833.831482,682.020325 835.441284,681.424866 
	C838.678589,680.227356 841.743347,681.235474 843.692139,684.948120 
	C847.713928,692.609985 852.465881,699.895996 856.345947,707.623596 
	C868.781555,732.390137 902.107117,734.083313 920.243103,721.850830 
	C931.997314,713.922668 938.094177,689.853394 919.101685,677.621887 
	C912.887878,673.620117 905.812317,670.758789 898.832336,668.185669 
	C884.346741,662.845581 869.244385,659.372498 855.847839,650.998047 
	C819.259766,628.126160 827.035767,580.493286 856.676575,562.307922 
	C881.932861,546.812561 908.475342,546.092590 935.983826,554.382507 
	C940.921570,555.870605 945.658508,558.044983 950.620667,559.426880 
	C956.187439,560.977234 957.935059,564.613403 957.543945,569.908508 
	C956.906189,578.543457 956.531860,587.207397 955.533813,595.799561 
	C955.278809,597.994629 953.184082,601.607544 951.785278,601.679871 
	C949.293579,601.808777 945.691040,600.424377 944.322449,598.447876 
	C940.647156,593.139954 937.991211,587.136597 934.774109,581.498596 
	C930.561096,574.115173 926.424866,566.725220 918.166687,562.789368 
	C905.383057,556.696655 884.619019,560.488770 875.009277,570.946045 
	C867.021423,579.638428 867.573364,594.118347 876.010315,603.275818 
	C884.222168,612.188965 895.446289,615.065796 906.216675,618.987061 
	C917.767090,623.192261 929.579712,626.901489 940.655029,632.143311 
	C968.058838,645.113281 974.238159,667.627625 970.623962,691.361206 
	C968.388306,706.042114 959.636963,716.929382 947.638916,725.067932 
	C936.706238,732.483765 924.264709,736.326294 911.258118,738.103821 
	C886.255981,741.520752 862.162964,738.368286 839.021545,727.973511 
	C834.104370,725.764771 831.606873,722.871277 831.866089,717.426697 
	C832.039673,713.779297 831.683289,710.106750 831.562012,705.952881 
M839.595337,585.220276 
	C838.229919,589.995911 836.257141,594.690613 835.607544,599.561768 
	C833.198486,617.624512 837.316406,633.198364 852.600647,645.012268 
	C865.498413,654.981750 880.956970,658.616882 895.750732,663.767395 
	C906.076477,667.362427 916.201416,671.014404 924.424011,678.304871 
	C930.159668,683.390503 933.347961,689.954224 934.258606,697.896118 
	C935.649048,710.022766 924.482361,726.014526 912.786682,730.124573 
	C911.857178,730.451172 911.181152,731.499023 910.387329,732.211670 
	C914.245422,732.478027 917.485229,731.821228 920.756531,731.426331 
	C923.190552,731.132446 925.908936,731.801331 928.076599,730.955017 
	C934.704590,728.367615 941.706177,726.100647 947.489258,722.141418 
	C955.318054,716.781555 962.507690,709.795105 965.207458,700.456177 
	C970.278198,682.916016 970.228210,665.499939 958.704224,649.973572 
	C956.019653,646.356628 952.688843,642.824646 948.888245,640.517456 
	C942.133362,636.416748 934.916931,632.995728 927.659302,629.827332 
	C920.990295,626.916077 913.913513,624.948975 907.194824,622.139282 
	C897.751465,618.190125 888.052124,614.574341 879.237488,609.475708 
	C869.648254,603.929016 865.617554,593.943481 866.512024,583.411194 
	C867.370178,573.306030 873.351624,565.634216 883.473694,561.782166 
	C885.634644,560.959778 887.168640,558.490173 889.599915,556.208557 
	C874.570068,551.979004 849.141357,567.219238 839.595337,585.220276 
M930.958740,570.547668 
	C935.387146,577.946838 939.691345,585.425415 944.336243,592.686096 
	C945.418152,594.377319 947.658081,595.327820 949.365295,596.619202 
	C950.508911,594.754578 952.419983,592.981934 952.656494,591.008606 
	C953.463501,584.273438 953.688660,577.468140 954.121521,570.688660 
	C954.432739,565.813965 951.732300,562.481140 947.591370,561.151489 
	C938.795471,558.326904 929.808167,556.072205 920.830017,553.865662 
	C919.222168,553.470520 917.281189,554.430603 915.494019,554.764954 
	C916.440308,556.566711 917.261230,558.452820 918.389709,560.132080 
	C918.896118,560.885498 920.089905,561.138672 920.848755,561.767334 
	C924.107788,564.467041 927.321106,567.221985 930.958740,570.547668 
M853.097595,707.491089 
	C850.148376,702.676086 847.334961,697.768616 844.162476,693.105469 
	C843.277222,691.804260 840.963989,690.197021 839.958618,690.556396 
	C838.473938,691.087097 836.677795,693.194336 836.579102,694.730713 
	C836.154358,701.338196 836.357117,707.983459 836.225159,714.612854 
	C836.078491,721.986328 840.164551,725.946960 846.829834,727.538452 
	C852.743896,728.950562 858.732788,730.126404 864.749573,730.974731 
	C866.191833,731.178101 867.875732,729.667419 869.448486,728.945068 
	C868.647827,727.421143 867.950806,725.828613 867.005859,724.400146 
	C866.475952,723.599060 865.415100,723.166565 864.799866,722.401917 
	C860.992310,717.669556 857.243286,712.890137 853.097595,707.491089 
z"/>
<path fill="#B06124" opacity="1.000000" stroke="none" 
	d="
M740.244995,563.875244 
	C752.469910,559.835388 764.344482,555.982971 776.169800,551.984680 
	C785.649536,548.779419 788.799561,551.072021 788.701660,561.008667 
	C788.252197,606.627380 787.817871,652.246460 787.543579,697.866394 
	C787.509827,703.478577 788.101135,709.161377 789.073975,714.693359 
	C789.993042,719.918884 793.351807,723.591309 798.467224,725.500671 
	C799.858215,726.019958 801.353271,726.596191 802.414124,727.568054 
	C803.429932,728.498535 804.773193,730.250000 804.477539,731.148987 
	C804.065735,732.401428 802.401245,733.558167 801.017090,734.088989 
	C799.526306,734.660645 797.740417,734.579346 796.082947,734.582275 
	C773.105286,734.622986 750.127563,734.635742 727.149841,734.627319 
	C725.826721,734.626831 724.458862,734.555603 723.189331,734.222290 
	C719.773499,733.325623 718.832764,730.380676 721.224731,727.829834 
	C722.209045,726.780212 723.590210,725.839966 724.960510,725.456970 
	C735.201782,722.595215 737.970764,714.822998 737.991882,705.482910 
	C738.055176,677.508728 738.050598,649.533630 737.864746,621.560303 
	C737.798401,611.585388 737.257751,601.607727 736.704834,591.644043 
	C736.331177,584.910400 732.073975,581.260315 725.957947,579.437012 
	C723.079041,578.578796 719.222107,577.988647 720.074158,574.156006 
	C720.528687,572.111877 723.525208,570.139648 725.812988,569.100769 
	C730.338745,567.045654 735.169067,565.661255 740.244995,563.875244 
M784.393616,691.283936 
	C784.575378,689.138367 784.903809,686.993530 784.914612,684.847107 
	C784.975708,672.684448 784.864502,660.520325 784.992554,648.358704 
	C785.230896,625.715454 785.620544,603.073853 785.887756,580.430908 
	C785.966309,573.769897 786.140686,567.088074 785.727356,560.449646 
	C785.354736,554.465332 782.811218,552.888428 777.030823,554.363098 
	C774.945374,554.895020 772.981873,555.888367 770.935730,556.592957 
	C758.196777,560.979553 745.425842,565.275696 732.731201,569.786621 
	C730.747742,570.491394 727.893127,571.923035 727.625183,573.411682 
	C727.338623,575.003601 729.216492,577.690552 730.882019,578.803162 
	C737.189392,583.016602 739.903809,588.945557 739.920898,596.191345 
	C740.009216,633.679443 740.018982,671.167725 739.984619,708.655945 
	C739.978638,715.159485 737.340698,720.557922 732.473389,724.941956 
	C731.244995,726.048218 730.509705,727.701965 729.547852,729.104187 
	C731.127136,729.776367 732.693726,730.998901 734.287781,731.035828 
	C751.091064,731.425537 767.898315,731.664368 784.705627,731.830872 
	C786.841980,731.852112 789.019958,731.368225 791.116943,730.862427 
	C794.782166,729.978516 795.446716,727.997559 792.742065,725.282837 
	C787.056458,719.576172 785.335205,712.498413 784.939575,704.820312 
	C784.838440,702.858398 784.350098,700.916504 784.060913,698.098633 
	C784.052673,696.075500 784.044434,694.052307 784.393616,691.283936 
z"/>
<path fill="#B06124" opacity="1.000000" stroke="none" 
	d="
M512.295837,479.937134 
	C544.079651,492.195892 566.791321,514.410156 582.461060,543.832825 
	C591.363770,560.549133 596.043335,578.858459 597.687805,597.772156 
	C598.119812,602.741272 600.080200,604.460022 604.877319,604.199097 
	C610.117676,603.914185 615.385437,604.134338 620.641296,604.134338 
	C620.893494,604.671021 621.145630,605.207703 621.397827,605.744385 
	C617.570801,609.477661 613.799316,613.269836 609.906006,616.932678 
	C599.847961,626.395386 589.714966,635.778381 579.655273,645.239258 
	C574.899963,649.711487 574.259583,649.949463 569.504761,645.418396 
	C556.247986,632.785583 543.142944,619.993469 529.996643,607.245056 
	C529.550232,606.812134 529.303894,606.172852 528.042786,604.156128 
	C532.884644,604.156128 536.691772,604.147949 540.498901,604.157654 
	C551.650085,604.186157 551.611938,604.061096 550.992615,593.064819 
	C549.520996,566.934082 544.905029,541.483337 534.395142,517.386780 
	C528.999817,505.016663 522.660889,493.117950 513.225342,483.176270 
	C512.510254,482.422852 512.425598,481.071075 512.295837,479.937134 
M552.121582,606.000305 
	C550.650452,606.273560 549.066711,606.290283 547.732910,606.876099 
	C545.332458,607.930481 541.691467,608.905396 541.150085,610.694580 
	C540.580505,612.576904 542.503967,615.898804 544.261658,617.680786 
	C551.611511,625.132263 559.298279,632.251953 566.888733,639.464783 
	C567.969055,640.491333 569.185608,641.377075 570.360352,642.301147 
	C573.301758,644.615051 576.329468,644.489502 578.958557,642.013123 
	C583.779541,637.472290 588.403320,632.722168 593.467163,627.783875 
	C593.693542,627.582275 593.888123,627.353638 594.604980,626.721741 
	C598.637329,623.092712 602.819763,619.610962 606.611389,615.745850 
	C607.762878,614.572083 608.683777,612.022827 608.180298,610.675049 
	C607.593201,609.103271 605.453918,607.934753 603.764771,606.991150 
	C601.009033,605.451721 598.072388,604.236206 595.174194,602.257568 
	C595.127319,601.841797 595.080444,601.426025 595.023193,600.157715 
	C594.720459,597.516724 594.594849,594.840942 594.083557,592.241028 
	C592.169128,582.507080 591.075806,572.480713 587.947510,563.142456 
	C580.344238,540.446045 566.614014,521.544739 549.013672,505.470245 
	C544.854919,501.672058 540.258362,498.302826 535.582214,495.153534 
	C534.235657,494.246643 531.659119,494.239258 530.136780,494.918457 
	C529.396240,495.248840 529.228699,498.318939 529.776428,499.784546 
	C530.988281,503.027283 533.104004,505.929230 534.346985,509.163879 
	C542.089355,529.311890 549.756287,549.433716 551.947571,571.234741 
	C553.112610,582.826050 555.160278,594.291199 552.986938,605.928284 
	C552.986938,605.928284 552.919373,605.914368 552.121582,606.000305 
z"/>
<path fill="#8E7342" opacity="1.000000" stroke="none" 
	d="
M400.085327,484.447876 
	C415.062897,477.164764 430.159760,471.790924 446.773804,472.086121 
	C453.763855,472.210327 460.792419,472.545685 467.741943,472.000671 
	C477.692627,471.220306 485.460327,475.304932 492.656219,481.448212 
	C505.117401,492.086517 513.474670,505.511963 519.363464,520.599731 
	C521.774719,526.777527 523.984741,533.038574 526.098389,539.324890 
	C526.707214,541.135620 526.661499,543.166382 527.064941,546.226807 
	C525.178345,544.833679 524.052612,544.242310 523.235046,543.364014 
	C493.858063,511.803284 443.082703,509.871490 410.096710,534.300659 
	C406.623352,536.873047 403.101105,539.392578 399.774353,542.145447 
	C397.093903,544.363586 394.479126,544.628967 391.531708,542.890198 
	C379.791718,535.964172 368.040741,529.056580 355.340118,521.580811 
	C367.571320,505.714264 382.468903,493.779327 400.085327,484.447876 
M455.385986,515.125854 
	C466.219543,513.339478 476.726715,515.537354 486.725586,519.081421 
	C495.413086,522.160706 503.450378,527.040833 511.908752,530.826294 
	C513.779236,531.663391 516.764099,532.080200 518.205994,531.129089 
	C519.295227,530.410522 519.429504,526.973450 518.814270,525.140503 
	C513.364258,508.904205 504.613617,494.634888 491.428009,483.606903 
	C486.578552,479.551056 480.657532,475.010681 474.792358,474.308685 
	C463.155426,472.915924 451.015991,472.673584 439.444214,474.386963 
	C410.740265,478.637085 386.491119,492.216614 366.004639,512.770813 
	C361.428619,517.361938 361.683624,521.493591 367.254730,525.673035 
	C373.999390,530.732910 381.620422,534.665894 389.033051,538.778625 
	C393.423981,541.214844 397.657593,541.015015 401.943115,537.520752 
	C417.266602,525.026611 434.741547,517.368408 455.385986,515.125854 
z"/>
<path fill="#B06124" opacity="1.000000" stroke="none" 
	d="
M679.742676,705.531616 
	C681.272644,728.022217 661.439880,743.239319 639.949646,737.890686 
	C621.899536,733.398132 612.560547,709.428406 622.164917,693.316833 
	C631.889771,677.003235 650.199768,674.021667 663.722229,681.106506 
	C673.165161,686.053894 678.064148,694.656189 679.742676,705.531616 
M651.662537,732.216125 
	C660.555725,731.359802 672.137573,722.063782 674.680115,713.741272 
	C676.570068,707.554871 674.716980,700.886719 670.860657,697.672302 
	C668.144592,695.408386 665.645874,692.687439 663.708740,689.737976 
	C661.591736,686.514648 659.238037,684.600037 655.245911,684.744446 
	C645.918701,685.081726 636.330994,684.594482 630.742615,694.412048 
	C630.351990,695.098328 629.554993,695.562195 628.921936,696.100220 
	C620.190063,703.523010 622.047058,719.516235 632.211487,724.863953 
	C634.103516,725.859375 636.259216,726.865845 637.507141,728.476318 
	C641.129089,733.150757 645.234436,735.098145 651.662537,732.216125 
z"/>
<path fill="#B06124" opacity="1.000000" stroke="none" 
	d="
M761.084961,528.204651 
	C749.240356,527.586182 740.418579,522.562256 735.437012,512.213135 
	C731.070862,503.142517 731.956909,494.121002 737.789124,485.731384 
	C748.920898,469.718262 778.559204,470.542419 787.452271,487.569183 
	C796.777466,505.423431 786.970459,528.029663 761.084961,528.204651 
M756.905823,519.967285 
	C761.489197,520.099792 766.078308,520.442383 770.654785,520.318542 
	C778.796204,520.098206 783.685547,515.085815 785.636963,507.883179 
	C787.797607,499.908295 785.425720,491.825653 780.132263,486.071045 
	C774.306763,479.738159 765.427673,477.201996 757.153748,479.292694 
	C750.519653,480.969025 742.761902,483.320251 740.488220,491.736053 
	C739.539429,495.247894 738.756226,498.814117 738.096252,502.392242 
	C736.951965,508.596680 740.362915,514.035461 746.351746,516.043274 
	C749.652527,517.149963 752.884766,518.461365 756.905823,519.967285 
z"/>
<path fill="#8E7342" opacity="1.000000" stroke="none" 
	d="
M748.866699,834.238525 
	C745.344666,837.014893 743.730164,835.542419 743.705139,831.961060 
	C743.623779,820.305176 743.643799,808.646362 743.865845,796.993286 
	C743.895325,795.444763 745.317261,793.922729 746.094299,792.388428 
	C747.682068,793.312256 749.903076,793.844849 750.754761,795.223389 
	C756.259399,804.133972 761.459351,813.232666 766.777039,822.259094 
	C767.409180,823.332214 768.149292,824.341797 770.119324,825.274292 
	C770.418579,823.522095 770.950012,821.773438 770.976746,820.017090 
	C771.088135,812.691406 770.894897,805.357666 771.169434,798.040222 
	C771.238831,796.188354 772.622131,794.385742 773.401611,792.560425 
	C774.361694,794.243347 776.100769,795.901306 776.155762,797.613281 
	C776.518738,808.917114 776.619385,820.233398 776.513977,831.542969 
	C776.500549,832.978943 774.688477,835.647156 773.887207,835.581421 
	C771.869263,835.415771 769.140259,834.546631 768.136169,833.015381 
	C763.762939,826.346619 759.930969,819.324524 755.841797,812.466919 
	C754.426453,810.093140 752.835388,807.824219 750.467957,805.669556 
	C747.801147,815.091919 750.010559,824.606628 748.866699,834.238525 
z"/>
<path fill="#8E7342" opacity="1.000000" stroke="none" 
	d="
M413.939941,814.323669 
	C412.197235,811.644287 410.623474,809.299866 409.049713,806.955383 
	C408.502350,807.106873 407.954987,807.258362 407.407623,807.409851 
	C407.055511,809.395264 406.458801,811.373108 406.397125,813.367493 
	C406.211884,819.358582 406.432281,825.369202 406.035126,831.341614 
	C405.939240,832.783447 404.070160,834.107361 403.016510,835.485535 
	C402.277039,834.050537 400.910065,832.620911 400.897736,831.179688 
	C400.802368,820.025391 400.857422,808.865845 401.165741,797.716187 
	C401.216034,795.896790 402.742706,794.118225 403.586975,792.320801 
	C405.293793,793.429260 407.635956,794.146240 408.600800,795.711975 
	C413.574646,803.783264 418.144714,812.102234 422.991394,820.254089 
	C423.757690,821.542847 425.216614,822.419800 426.355286,823.487183 
	C427.036224,821.951416 428.298340,820.415833 428.298828,818.879883 
	C428.301056,811.729675 427.822998,804.579224 427.825775,797.429016 
	C427.826477,795.668274 428.986786,793.908020 429.614014,792.147522 
	C430.311249,792.236206 431.008453,792.324890 431.705688,792.413513 
	C432.061523,794.731140 432.724609,797.049255 432.720551,799.366211 
	C432.701782,810.006287 432.568359,820.648010 432.279694,831.283752 
	C432.237152,832.851440 431.142090,834.390503 430.533997,835.942810 
	C428.872955,835.099304 426.565552,834.688232 425.661987,833.337891 
	C421.593384,827.257019 417.922882,820.909790 413.939941,814.323669 
z"/>
<path fill="#8E7342" opacity="1.000000" stroke="none" 
	d="
M292.219727,830.037354 
	C288.286926,823.246155 284.593750,816.732605 280.708679,810.335571 
	C280.052002,809.254395 278.568542,808.675232 277.467133,807.864075 
	C276.969299,808.999634 276.069061,810.125977 276.042816,811.272339 
	C275.924957,816.423889 276.066986,821.581177 276.089447,826.736450 
	C276.096710,828.400391 276.417908,830.207947 275.878174,831.688232 
	C275.346832,833.145569 273.906097,834.271301 272.864441,835.542542 
	C271.982788,834.202271 270.348541,832.867676 270.338501,831.520874 
	C270.257812,820.702637 270.479279,809.882141 270.622620,799.062500 
	C270.635834,798.064880 270.514832,796.975159 270.868042,796.093079 
	C271.437012,794.672180 272.349213,793.388611 273.116394,792.047058 
	C274.437927,792.839233 276.295410,793.309814 276.994781,794.475281 
	C281.874573,802.607178 286.494934,810.894226 291.249695,819.101868 
	C292.089905,820.552246 293.170563,821.863220 294.140228,823.238586 
	C294.582794,823.154358 295.025330,823.070129 295.467896,822.985901 
	C295.857758,821.187012 296.533417,819.396484 296.586365,817.587708 
	C296.781219,810.931335 296.593750,804.259399 296.952667,797.615112 
	C297.048859,795.833984 298.574402,794.130066 299.443726,792.390686 
	C300.345215,794.070923 301.992950,795.736084 302.027344,797.433899 
	C302.253204,808.585571 302.214020,819.745728 302.033844,830.899414 
	C302.006378,832.599548 300.799927,834.280701 300.138763,835.970642 
	C298.117188,835.120728 295.978760,834.462891 294.125763,833.335815 
	C293.263275,832.811279 292.954498,831.376404 292.219727,830.037354 
M294.249908,829.788086 
	C295.993073,831.138611 297.736267,832.489075 299.479462,833.839539 
	C299.714691,830.912842 299.949921,827.986145 300.185120,825.059448 
	C299.560944,824.869751 298.936737,824.679993 298.312531,824.490295 
	C296.889771,826.060181 295.466980,827.630066 294.249908,829.788086 
z"/>
<path fill="#8E7342" opacity="1.000000" stroke="none" 
	d="
M940.892822,827.368286 
	C939.370117,824.761230 938.420166,822.053650 936.564697,820.309143 
	C935.098206,818.930298 932.338989,817.897461 930.494568,818.294373 
	C929.161682,818.581238 927.817383,821.366760 927.495911,823.214966 
	C926.990479,826.120972 927.600586,829.210388 927.209961,832.151978 
	C927.041626,833.419617 925.552551,834.511963 924.663513,835.683899 
	C923.717407,834.581116 921.963074,833.488403 921.949280,832.374146 
	C921.799072,820.262817 921.808167,808.145081 922.129761,796.038574 
	C922.165466,794.693848 924.293213,792.426819 925.644287,792.271545 
	C930.403809,791.724487 935.275269,791.552185 940.052185,791.917908 
	C945.164734,792.309265 948.578308,795.850891 950.432068,800.271606 
	C952.448669,805.080383 951.634644,810.395386 947.644653,813.589050 
	C942.391846,817.793457 943.205811,821.637024 946.189148,826.346863 
	C947.913269,829.068787 949.325012,831.988586 951.282776,835.558777 
	C944.406616,836.161377 943.468201,831.012939 940.892822,827.368286 
M927.406799,810.788818 
	C929.930054,815.049377 939.182129,815.160522 943.373108,810.980530 
	C947.448608,806.915771 945.912964,799.091736 940.706482,797.394043 
	C930.653809,794.116272 927.034119,796.674622 927.209106,806.938599 
	C927.226074,807.932373 927.270874,808.925659 927.406799,810.788818 
z"/>
<path fill="#8E7342" opacity="1.000000" stroke="none" 
	d="
M536.495667,836.149292 
	C532.302734,836.471985 530.680481,834.909424 530.664978,830.983948 
	C530.622314,820.195312 530.365845,809.405762 530.047729,798.620789 
	C529.901489,793.660889 532.432556,791.638672 537.014709,791.650635 
	C545.113892,791.671753 553.065247,792.077148 558.335510,799.722351 
	C564.542419,808.726196 564.283081,818.253113 560.055603,827.692810 
	C557.585938,833.207275 552.586853,836.005066 546.396484,836.152100 
	C543.242371,836.227112 540.084961,836.159241 536.495667,836.149292 
M536.190247,824.301086 
	C536.655640,827.412659 534.520508,831.855774 540.210632,832.313904 
	C548.982056,833.020203 554.082886,829.417786 556.468628,820.895325 
	C559.932800,808.520386 553.759583,797.777344 542.673218,796.887634 
	C537.350586,796.460449 536.025391,797.564636 536.007324,802.863892 
	C535.984070,809.689514 536.121521,816.515747 536.190247,824.301086 
z"/>
<path fill="#8E7342" opacity="1.000000" stroke="none" 
	d="
M480.332214,796.595581 
	C475.830231,796.720337 471.668640,796.844421 467.509308,796.790955 
	C464.144104,796.747742 462.581482,798.265869 462.730835,801.616028 
	C462.790100,802.946106 462.842377,804.282471 462.782898,805.610779 
	C462.605499,809.571045 464.270081,811.470215 468.412872,811.186646 
	C471.059204,811.005615 473.771484,811.014282 476.380402,811.416565 
	C477.532806,811.594238 478.502197,812.959229 479.554688,813.785217 
	C478.505646,814.712646 477.537079,816.294128 476.391296,816.434937 
	C473.783844,816.755615 471.088806,816.382690 468.430481,816.266357 
	C464.538727,816.096130 462.738708,817.660889 462.693024,821.835266 
	C462.580933,832.079651 462.432068,831.938354 472.669250,832.023193 
	C476.090485,832.051514 480.173096,830.621643 482.776184,834.033936 
	C482.723297,834.728271 482.670441,835.422607 482.617584,836.116943 
	C479.446167,836.116943 476.274689,836.131531 473.103394,836.113281 
	C469.106873,836.090332 465.110352,835.997925 461.114166,836.016479 
	C458.184052,836.030029 456.912048,834.672791 456.931091,831.740540 
	C457.007904,819.917908 456.895691,808.092285 457.172119,796.275208 
	C457.205597,794.844238 459.068542,792.354675 460.267487,792.237488 
	C466.379883,791.640137 472.553162,791.542969 478.704071,791.565491 
	C479.950378,791.570068 481.192017,792.844971 482.435791,793.534241 
	C481.848389,794.528931 481.261017,795.523621 480.332214,796.595581 
z"/>
<path fill="#8E7342" opacity="1.000000" stroke="none" 
	d="
M1118.982666,811.133972 
	C1120.300049,812.048035 1121.230347,812.948059 1122.160767,813.848022 
	C1121.170654,814.782166 1120.263794,816.387695 1119.174561,816.522766 
	C1116.062500,816.908569 1112.873901,816.781982 1109.719727,816.696411 
	C1106.579102,816.611145 1105.086426,818.036316 1105.106079,821.143066 
	C1105.114380,822.472595 1105.064209,823.802673 1105.081177,825.131958 
	C1105.160645,831.372864 1105.771484,831.972534 1111.952026,832.016724 
	C1114.776123,832.036926 1117.619995,831.910400 1120.413696,832.220886 
	C1121.450073,832.336060 1122.368530,833.510864 1123.340820,834.202393 
	C1122.374512,834.839905 1121.423950,835.998718 1120.439453,836.028442 
	C1114.959351,836.193726 1109.470947,836.089233 1103.985474,836.068665 
	C1100.861694,836.056946 1099.344604,834.234253 1099.372437,831.354126 
	C1099.486206,819.559387 1099.603027,807.760010 1100.117798,795.979736 
	C1100.181396,794.523376 1102.515015,792.136169 1104.008667,791.958191 
	C1109.265869,791.331726 1114.622803,791.284241 1119.924683,791.481079 
	C1121.162231,791.527039 1122.331909,793.401184 1123.532837,794.434204 
	C1122.297729,795.225952 1121.139160,796.492432 1119.811157,796.706299 
	C1117.376099,797.098328 1114.840820,796.850891 1112.348022,796.903015 
	C1106.223633,797.031006 1105.527466,797.752075 1105.526855,803.889893 
	C1105.526123,810.210876 1106.192505,810.947449 1112.112915,811.070496 
	C1114.273315,811.115417 1116.434692,811.104980 1118.982666,811.133972 
z"/>
<path fill="#8E7342" opacity="1.000000" stroke="none" 
	d="
M894.788574,791.498291 
	C896.359680,792.478699 897.561035,793.420105 898.762451,794.361511 
	C897.289856,795.142456 895.873657,796.427979 894.333008,796.600159 
	C891.043518,796.967957 887.688904,796.813171 884.362244,796.771179 
	C880.993225,796.728577 879.732239,798.395813 879.547546,801.663696 
	C879.054565,810.389771 879.732056,811.049988 888.846375,811.238892 
	C891.325500,811.290283 895.604492,809.544861 895.717041,813.720032 
	C895.824768,817.715942 891.576965,816.351807 888.991455,816.758972 
	C888.666504,816.810242 888.326965,816.768982 887.994202,816.771606 
	C880.324951,816.831665 876.423340,823.035583 880.060303,829.829712 
	C880.704468,831.032959 882.970276,831.806519 884.570129,831.970642 
	C888.198486,832.342773 891.889954,832.066162 895.531860,832.355225 
	C897.034424,832.474487 898.475464,833.369080 899.944519,833.911072 
	C899.874573,834.321350 899.804626,834.731628 899.734680,835.141846 
	C898.890076,835.470154 898.047302,836.076477 897.200500,836.082275 
	C891.044800,836.124695 884.888000,836.066956 878.732117,835.996765 
	C875.614380,835.961243 873.786133,834.734741 873.826111,831.203064 
	C873.953979,819.893127 873.944336,808.581299 873.932007,797.270203 
	C873.927917,793.496643 875.785034,791.851868 879.460999,791.812866 
	C884.447632,791.760010 889.432922,791.583069 894.788574,791.498291 
z"/>
<path fill="#8E7342" opacity="1.000000" stroke="none" 
	d="
M611.634033,795.417419 
	C620.063782,803.655396 621.982788,820.268494 615.843933,830.101685 
	C615.321594,830.938293 614.657837,831.707581 613.962280,832.411865 
	C606.226318,840.244080 588.497070,837.074951 584.067383,827.082275 
	C579.373718,816.494202 581.481140,803.125427 588.884949,796.520325 
	C596.443848,789.776794 602.872375,789.394165 611.634033,795.417419 
M610.797424,828.143188 
	C615.428223,819.479736 616.080078,810.555908 611.076843,802.015503 
	C606.385376,794.007324 596.130798,794.331238 590.853516,801.875671 
	C586.383850,808.265564 587.006470,815.132874 588.228210,822.052368 
	C589.081848,826.886536 591.725342,830.563049 596.776978,832.167603 
	C602.078064,833.851440 606.618225,833.093689 610.797424,828.143188 
z"/>
<path fill="#8E7342" opacity="1.000000" stroke="none" 
	d="
M228.128357,836.232788 
	C217.348694,836.003052 212.975708,831.574890 212.853271,821.141541 
	C212.802536,816.817078 212.807434,812.490784 212.864746,808.166382 
	C212.980835,799.405518 216.748337,794.481323 225.336105,791.757446 
	C231.794907,789.708862 239.890442,792.730835 244.193909,798.796814 
	C250.148758,807.190430 249.873322,821.981140 244.018768,830.474487 
	C240.087997,836.176941 234.592133,836.650269 228.128357,836.232788 
M229.420151,832.990845 
	C235.707199,832.792664 239.359787,829.502319 241.369827,823.605347 
	C243.641663,816.940491 242.977463,810.580261 240.704895,804.144531 
	C239.155441,799.756836 236.040985,797.409363 231.573318,796.756897 
	C226.841095,796.065918 222.660904,797.049866 219.591309,801.074463 
	C214.115753,808.253662 214.090866,821.943054 220.168320,828.585571 
	C222.183243,830.787842 225.748428,831.571777 229.420151,832.990845 
z"/>
<path fill="#8E7342" opacity="1.000000" stroke="none" 
	d="
M826.142944,808.938965 
	C823.034485,801.879822 824.813599,797.010254 831.685852,793.486511 
	C837.406433,790.553284 845.399414,789.524170 851.311707,798.823425 
	C848.732971,798.491882 847.077820,798.314758 845.434814,798.059937 
	C842.680725,797.632751 839.789856,796.415527 837.226562,796.915344 
	C834.819092,797.384766 831.263977,799.372803 830.932068,801.189331 
	C830.526367,803.409180 832.409485,806.725830 834.302368,808.504517 
	C836.371094,810.448547 839.667358,811.024109 842.271667,812.477356 
	C844.993530,813.996277 847.869019,815.501892 850.059814,817.644653 
	C852.851196,820.374695 854.811462,823.925903 852.908203,828.015076 
	C850.797729,832.549500 847.920410,836.457947 842.129700,836.220276 
	C837.651917,836.036560 833.122131,835.994019 828.736206,835.211792 
	C826.794189,834.865479 825.150391,832.846863 823.371216,831.587402 
	C823.687927,830.989197 824.004639,830.391052 824.321289,829.792908 
	C825.756714,830.076111 827.180786,830.459167 828.629700,830.623596 
	C832.845154,831.101868 837.148865,832.144165 841.259827,831.649902 
	C843.396240,831.393005 846.304260,828.626282 846.814087,826.501587 
	C847.247375,824.695618 845.235657,821.555176 843.421814,820.130676 
	C840.598083,817.913147 836.907104,816.840637 833.805969,814.923279 
	C831.155823,813.284729 828.818237,811.140686 826.142944,808.938965 
z"/>
<path fill="#8E7342" opacity="1.000000" stroke="none" 
	d="
M980.958252,834.926880 
	C977.588806,825.993713 974.436340,817.283752 971.394653,808.535156 
	C970.085876,804.770996 968.832825,800.968506 967.911133,797.098450 
	C967.554932,795.602844 968.186890,793.871826 968.368591,792.248108 
	C969.786133,793.316589 971.845337,794.091248 972.495422,795.511108 
	C974.146851,799.117981 975.255005,802.986938 976.419739,806.800171 
	C978.117554,812.358521 979.583801,817.989075 981.361267,823.520508 
	C981.753845,824.742126 983.034790,825.678284 983.906616,826.745850 
	C984.756592,825.664917 986.011597,824.709229 986.391113,823.482727 
	C988.940979,815.241699 991.191711,806.907104 993.800171,798.685608 
	C994.549988,796.322327 996.158142,794.231323 997.372803,792.015503 
	C997.919189,792.118530 998.465637,792.221558 999.012085,792.324524 
	C999.235657,793.733704 999.969604,795.294067 999.603760,796.528564 
	C996.021606,808.615417 992.350037,820.678162 988.486389,832.677795 
	C987.313660,836.320068 984.468750,836.747192 980.958252,834.926880 
z"/>
<path fill="#8E7342" opacity="1.000000" stroke="none" 
	d="
M1052.751343,811.155334 
	C1052.804932,814.450500 1052.650513,817.305908 1053.030029,820.088440 
	C1054.379517,829.981506 1061.117676,834.486572 1070.778198,832.081970 
	C1072.989014,831.531677 1075.153198,830.794250 1077.873291,829.983643 
	C1077.557373,834.195374 1075.001099,835.656799 1071.996216,835.888855 
	C1058.041382,836.966492 1050.896606,836.633423 1047.447021,821.747192 
	C1043.985474,806.808838 1050.892456,794.296204 1063.632202,791.538635 
	C1068.201782,790.549500 1072.290527,791.348328 1075.307251,795.163574 
	C1075.899902,795.912903 1075.757446,797.243286 1075.953979,798.305664 
	C1074.905640,798.314209 1073.736328,798.635498 1072.827637,798.283508 
	C1062.081909,794.121460 1054.310669,798.895447 1052.751343,811.155334 
z"/>
<path fill="#8E7342" opacity="1.000000" stroke="none" 
	d="
M655.041626,815.997559 
	C655.006287,821.329041 655.191284,826.176819 654.837891,830.985107 
	C654.709717,832.729126 653.294861,834.378662 652.467102,836.071289 
	C651.435059,834.278564 649.579041,832.516418 649.511292,830.688049 
	C649.190918,822.035767 649.396790,813.365112 649.341736,804.701477 
	C649.295166,797.366882 649.234741,797.516663 641.869080,796.729248 
	C640.123962,796.542725 638.525452,794.984131 636.859497,794.056702 
	C638.451355,793.177979 640.011230,791.614380 641.640564,791.538330 
	C648.958374,791.196960 656.302307,791.093445 663.621460,791.347290 
	C665.289551,791.405090 666.896423,793.225708 668.531494,794.234985 
	C666.796509,795.123047 665.100342,796.682190 663.319946,796.785095 
	C654.830933,797.275757 654.833679,797.134827 654.973999,805.500854 
	C655.029846,808.832764 655.025696,812.165771 655.041626,815.997559 
z"/>
<path fill="#8E7342" opacity="1.000000" stroke="none" 
	d="
M335.028076,831.792480 
	C339.508545,831.929932 343.513947,831.756470 347.486664,832.040222 
	C348.597351,832.119629 349.611725,833.547546 350.670288,834.356812 
	C349.647675,834.959167 348.637024,836.056641 347.600525,836.081604 
	C341.941711,836.218079 336.255096,836.347107 330.628174,835.878052 
	C329.179016,835.757202 326.769775,833.497253 326.737122,832.172363 
	C326.442017,820.192993 326.508087,808.201965 326.682983,796.217468 
	C326.702698,794.865540 328.049042,793.532959 328.780212,792.191345 
	C329.874176,793.623352 331.857513,795.018921 331.917969,796.493286 
	C332.313416,806.137817 332.174469,815.803467 332.501587,825.452271 
	C332.572388,827.540344 333.829803,829.588074 335.028076,831.792480 
z"/>
<path fill="#8E7342" opacity="1.000000" stroke="none" 
	d="
M714.432983,832.616089 
	C714.350098,821.441772 714.288574,810.641113 714.284180,799.840393 
	C714.283508,798.186768 714.297424,796.456543 714.773132,794.905518 
	C715.102844,793.830383 716.236755,793.001831 717.011353,792.063110 
	C717.826111,793.003418 718.729736,793.884094 719.417786,794.909424 
	C719.757019,795.414917 719.800964,796.187195 719.804138,796.839539 
	C719.861389,808.467163 719.965820,820.095764 719.829041,831.721436 
	C719.812988,833.086792 718.438049,834.436218 717.693115,835.793030 
	C716.619751,834.858582 715.546326,833.924194 714.432983,832.616089 
z"/>
<path fill="#8E7342" opacity="1.000000" stroke="none" 
	d="
M1019.087097,824.678955 
	C1019.075439,813.831543 1019.075439,803.449463 1019.075439,793.067383 
	C1019.893188,792.794312 1020.710876,792.521240 1021.528625,792.248230 
	C1022.614563,793.814636 1024.605713,795.360474 1024.641968,796.950867 
	C1024.909790,808.719116 1024.866211,820.497681 1024.657104,832.268311 
	C1024.638184,833.332397 1022.763733,834.363464 1021.750854,835.409912 
	C1021.001770,834.306335 1019.833679,833.286194 1019.593811,832.081299 
	C1019.144775,829.825562 1019.233643,827.462646 1019.087097,824.678955 
z"/>
<path fill="#8E7342" opacity="1.000000" stroke="none" 
	d="
M371.777405,815.997742 
	C371.708160,809.509644 371.392273,803.509094 371.694794,797.539978 
	C371.780487,795.848816 373.670898,794.249084 374.733582,792.607361 
	C375.532593,794.287354 377.022308,795.968506 377.019470,797.647156 
	C376.999969,809.292114 376.728485,820.938538 376.343628,832.578003 
	C376.307861,833.659424 374.921539,834.696167 374.162323,835.753601 
	C373.346832,834.659790 371.877106,833.594788 371.827484,832.467346 
	C371.593597,827.153320 371.748840,821.822266 371.777405,815.997742 
z"/>
<path fill="#DD7421" opacity="1.000000" stroke="none" 
	d="
M839.747803,584.876770 
	C849.141357,567.219238 874.570068,551.979004 889.599915,556.208557 
	C887.168640,558.490173 885.634644,560.959778 883.473694,561.782166 
	C873.351624,565.634216 867.370178,573.306030 866.512024,583.411194 
	C865.617554,593.943481 869.648254,603.929016 879.237488,609.475708 
	C888.052124,614.574341 897.751465,618.190125 907.194824,622.139282 
	C913.913513,624.948975 920.990295,626.916077 927.659302,629.827332 
	C934.916931,632.995728 942.133362,636.416748 948.888245,640.517456 
	C952.688843,642.824646 956.019653,646.356628 958.704224,649.973572 
	C970.228210,665.499939 970.278198,682.916016 965.207458,700.456177 
	C962.507690,709.795105 955.318054,716.781555 947.489258,722.141418 
	C941.706177,726.100647 934.704590,728.367615 928.076599,730.955017 
	C925.908936,731.801331 923.190552,731.132446 920.756531,731.426331 
	C917.485229,731.821228 914.245422,732.478027 910.387329,732.211670 
	C911.181152,731.499023 911.857178,730.451172 912.786682,730.124573 
	C924.482361,726.014526 935.649048,710.022766 934.258606,697.896118 
	C933.347961,689.954224 930.159668,683.390503 924.424011,678.304871 
	C916.201416,671.014404 906.076477,667.362427 895.750732,663.767395 
	C880.956970,658.616882 865.498413,654.981750 852.600647,645.012268 
	C837.316406,633.198364 833.198486,617.624512 835.607544,599.561768 
	C836.257141,594.690613 838.229919,589.995911 839.747803,584.876770 
M939.411377,638.997742 
	C930.173645,635.415161 920.972046,631.736023 911.689331,628.274109 
	C899.772095,623.829712 887.732300,619.706970 875.889404,615.077026 
	C873.804810,614.262024 871.920349,611.898438 870.845032,609.790161 
	C869.360352,606.879150 869.189270,603.286194 867.650574,600.416992 
	C863.103760,591.938660 861.500671,583.134277 863.474426,573.708740 
	C864.308716,569.724670 862.572693,568.412170 858.522644,569.112183 
	C853.453247,569.988403 850.769714,573.684082 848.353516,577.326721 
	C844.669312,582.881104 839.359375,587.842224 839.086243,595.033386 
	C838.765320,603.483337 838.943604,611.960938 839.199951,620.417664 
	C839.261841,622.460754 839.965759,624.917603 841.264160,626.410339 
	C845.506287,631.287354 849.950073,636.034302 854.704651,640.409241 
	C861.300598,646.478394 871.486572,646.657654 877.506897,653.883362 
	C877.954346,654.420349 879.062195,654.384338 879.842834,654.669983 
	C892.910217,659.449585 905.998474,664.173462 919.030029,669.048889 
	C926.803955,671.957336 931.691101,678.642090 934.094666,685.561218 
	C936.696838,693.052124 936.666870,701.651001 936.673035,709.767456 
	C936.676086,713.748230 934.163574,717.730896 932.595337,722.275452 
	C941.420837,722.460388 948.445557,719.442566 953.278259,712.768921 
	C958.320801,705.805420 963.540466,698.573303 964.164124,689.602722 
	C964.689697,682.043640 966.141479,673.796875 963.862915,666.961243 
	C959.879333,655.010559 952.023743,645.071533 939.411377,638.997742 
z"/>
<path fill="#DD7421" opacity="1.000000" stroke="none" 
	d="
M930.754883,570.252197 
	C927.321106,567.221985 924.107788,564.467041 920.848755,561.767334 
	C920.089905,561.138672 918.896118,560.885498 918.389709,560.132080 
	C917.261230,558.452820 916.440308,556.566711 915.494019,554.764954 
	C917.281189,554.430603 919.222168,553.470520 920.830017,553.865662 
	C929.808167,556.072205 938.795471,558.326904 947.591370,561.151489 
	C951.732300,562.481140 954.432739,565.813965 954.121521,570.688660 
	C953.688660,577.468140 953.463501,584.273438 952.656494,591.008606 
	C952.419983,592.981934 950.508911,594.754578 949.365234,596.619141 
	C947.658081,595.327820 945.418152,594.377319 944.336243,592.686096 
	C939.691345,585.425415 935.387146,577.946838 930.754883,570.252197 
z"/>
<path fill="#DD7421" opacity="1.000000" stroke="none" 
	d="
M853.286255,707.808716 
	C857.243286,712.890137 860.992310,717.669556 864.799866,722.401917 
	C865.415100,723.166565 866.475952,723.599060 867.005859,724.400146 
	C867.950806,725.828613 868.647827,727.421143 869.448486,728.945068 
	C867.875732,729.667419 866.191833,731.178101 864.749573,730.974731 
	C858.732788,730.126404 852.743896,728.950562 846.829834,727.538452 
	C840.164551,725.946960 836.078491,721.986328 836.225159,714.612854 
	C836.357117,707.983459 836.154358,701.338196 836.579102,694.730713 
	C836.677795,693.194336 838.473938,691.087097 839.958618,690.556396 
	C840.963989,690.197021 843.277222,691.804260 844.162476,693.105469 
	C847.334961,697.768616 850.148376,702.676086 853.286255,707.808716 
z"/>
<path fill="#E97319" opacity="1.000000" stroke="none" 
	d="
M784.036255,692.029175 
	C784.044434,694.052307 784.052673,696.075500 783.855225,698.830872 
	C783.319519,705.965027 782.426147,712.400940 782.810242,718.759705 
	C783.236511,725.816101 780.666870,729.333862 773.671204,728.896790 
	C764.725586,728.337830 755.794861,727.528503 746.846191,727.037354 
	C742.593262,726.803894 740.849304,724.697205 741.026428,720.665405 
	C741.121094,718.508545 741.317566,716.356201 741.462341,714.201416 
	C742.169312,703.677734 743.072144,693.162048 743.503113,682.626953 
	C743.746460,676.677856 742.995972,670.694214 743.069092,664.730713 
	C743.276917,647.778320 743.812073,630.829346 743.955322,613.876770 
	C744.050232,602.651123 742.111023,591.751892 737.901428,581.244446 
	C737.153320,579.377319 737.165588,575.908691 738.344116,574.815552 
	C741.571045,571.822388 745.333740,569.030334 749.382324,567.381470 
	C756.714294,564.395508 764.461121,562.446960 771.935547,559.786682 
	C779.730713,557.012268 781.536926,557.947937 782.720459,566.403992 
	C783.064331,568.861145 783.037231,571.391113 782.967590,573.881775 
	C782.588501,587.436584 782.027954,600.987183 781.749329,614.543762 
	C781.394409,631.820435 780.891968,649.106995 781.165100,666.378052 
	C781.300537,674.941406 783.028687,683.479614 784.036255,692.029175 
z"/>
<path fill="#DD7421" opacity="1.000000" stroke="none" 
	d="
M784.214966,691.656555 
	C783.028687,683.479614 781.300537,674.941406 781.165100,666.378052 
	C780.891968,649.106995 781.394409,631.820435 781.749329,614.543762 
	C782.027954,600.987183 782.588501,587.436584 782.967590,573.881775 
	C783.037231,571.391113 783.064331,568.861145 782.720459,566.403992 
	C781.536926,557.947937 779.730713,557.012268 771.935547,559.786682 
	C764.461121,562.446960 756.714294,564.395508 749.382324,567.381470 
	C745.333740,569.030334 741.571045,571.822388 738.344116,574.815552 
	C737.165588,575.908691 737.153320,579.377319 737.901428,581.244446 
	C742.111023,591.751892 744.050232,602.651123 743.955322,613.876770 
	C743.812073,630.829346 743.276917,647.778320 743.069092,664.730713 
	C742.995972,670.694214 743.746460,676.677856 743.503113,682.626953 
	C743.072144,693.162048 742.169312,703.677734 741.462341,714.201416 
	C741.317566,716.356201 741.121094,718.508545 741.026428,720.665405 
	C740.849304,724.697205 742.593262,726.803894 746.846191,727.037354 
	C755.794861,727.528503 764.725586,728.337830 773.671204,728.896790 
	C780.666870,729.333862 783.236511,725.816101 782.810242,718.759705 
	C782.426147,712.400940 783.319519,705.965027 783.844604,699.264282 
	C784.350098,700.916504 784.838440,702.858398 784.939575,704.820312 
	C785.335205,712.498413 787.056458,719.576172 792.742065,725.282837 
	C795.446716,727.997559 794.782166,729.978516 791.116943,730.862427 
	C789.019958,731.368225 786.841980,731.852112 784.705627,731.830872 
	C767.898315,731.664368 751.091064,731.425537 734.287781,731.035828 
	C732.693726,730.998901 731.127136,729.776367 729.547852,729.104126 
	C730.509705,727.701965 731.244995,726.048218 732.473389,724.941956 
	C737.340698,720.557922 739.978638,715.159485 739.984619,708.655945 
	C740.018982,671.167725 740.009216,633.679443 739.920898,596.191345 
	C739.903809,588.945557 737.189392,583.016602 730.882019,578.803162 
	C729.216492,577.690552 727.338623,575.003601 727.625183,573.411682 
	C727.893127,571.923035 730.747742,570.491394 732.731201,569.786621 
	C745.425842,565.275696 758.196777,560.979553 770.935730,556.592957 
	C772.981873,555.888367 774.945374,554.895020 777.030823,554.363098 
	C782.811218,552.888428 785.354736,554.465332 785.727356,560.449646 
	C786.140686,567.088074 785.966309,573.769897 785.887756,580.430908 
	C785.620544,603.073853 785.230896,625.715454 784.992554,648.358704 
	C784.864502,660.520325 784.975708,672.684448 784.914612,684.847107 
	C784.903809,686.993530 784.575378,689.138367 784.214966,691.656555 
z"/>
<path fill="#E97319" opacity="1.000000" stroke="none" 
	d="
M595.033569,601.010254 
	C595.080444,601.426025 595.127319,601.841797 595.031738,602.828003 
	C595.798218,605.244568 596.508301,607.226135 597.655457,608.910034 
	C600.418579,612.965759 600.855286,616.607239 597.229919,620.560669 
	C595.660400,622.272217 595.080505,624.891235 594.051025,627.097961 
	C593.888123,627.353638 593.693542,627.582275 592.913574,627.943237 
	C588.862488,629.936951 585.217285,631.540161 581.902039,633.659485 
	C576.879761,636.869995 572.177612,637.033447 567.780273,633.185242 
	C563.067444,629.060974 558.466797,624.784058 554.096619,620.301331 
	C551.251282,617.382690 548.998596,614.045349 552.230469,609.750671 
	C552.927856,608.823914 552.713684,607.211121 552.919373,605.914368 
	C552.919373,605.914368 552.986938,605.928284 553.288818,605.809998 
	C558.967163,599.176636 559.314087,591.131409 558.173889,583.706604 
	C555.947510,569.208008 551.769104,555.012695 549.447327,540.523865 
	C548.098389,532.106018 546.866272,523.890503 543.234314,516.076172 
	C542.440613,514.368408 543.676758,511.717285 543.978088,509.500610 
	C546.342285,510.301544 549.413452,510.426178 550.943298,512.025330 
	C556.369812,517.697693 561.073425,524.056030 566.418091,529.813721 
	C573.701050,537.659485 578.363403,547.038208 581.499878,556.946594 
	C585.688293,570.178162 588.622864,583.804260 592.254150,597.218079 
	C592.636230,598.629517 594.081543,599.753113 595.033569,601.010254 
z"/>
<path fill="#DD7421" opacity="1.000000" stroke="none" 
	d="
M595.028381,600.583984 
	C594.081543,599.753113 592.636230,598.629517 592.254150,597.218079 
	C588.622864,583.804260 585.688293,570.178162 581.499878,556.946594 
	C578.363403,547.038208 573.701050,537.659485 566.418091,529.813721 
	C561.073425,524.056030 556.369812,517.697693 550.943298,512.025330 
	C549.413452,510.426178 546.342285,510.301544 543.978088,509.500610 
	C543.676758,511.717285 542.440613,514.368408 543.234314,516.076172 
	C546.866272,523.890503 548.098389,532.106018 549.447327,540.523865 
	C551.769104,555.012695 555.947510,569.208008 558.173889,583.706604 
	C559.314087,591.131409 558.967163,599.176636 553.256470,605.814941 
	C555.160278,594.291199 553.112610,582.826050 551.947571,571.234741 
	C549.756287,549.433716 542.089355,529.311890 534.346985,509.163879 
	C533.104004,505.929230 530.988281,503.027283 529.776428,499.784546 
	C529.228699,498.318939 529.396240,495.248840 530.136780,494.918457 
	C531.659119,494.239258 534.235657,494.246643 535.582214,495.153534 
	C540.258362,498.302826 544.854919,501.672058 549.013672,505.470245 
	C566.614014,521.544739 580.344238,540.446045 587.947510,563.142456 
	C591.075806,572.480713 592.169128,582.507080 594.083557,592.241028 
	C594.594849,594.840942 594.720459,597.516724 595.028381,600.583984 
z"/>
<path fill="#DD7421" opacity="1.000000" stroke="none" 
	d="
M552.520508,605.957336 
	C552.713684,607.211121 552.927856,608.823914 552.230469,609.750671 
	C548.998596,614.045349 551.251282,617.382690 554.096619,620.301331 
	C558.466797,624.784058 563.067444,629.060974 567.780273,633.185242 
	C572.177612,637.033447 576.879761,636.869995 581.902039,633.659485 
	C585.217285,631.540161 588.862488,629.936951 592.734680,628.080994 
	C588.403320,632.722168 583.779541,637.472290 578.958557,642.013123 
	C576.329468,644.489502 573.301758,644.615051 570.360352,642.301147 
	C569.185608,641.377075 567.969055,640.491333 566.888733,639.464783 
	C559.298279,632.251953 551.611511,625.132263 544.261658,617.680786 
	C542.503967,615.898804 540.580505,612.576904 541.150085,610.694580 
	C541.691467,608.905396 545.332458,607.930481 547.732910,606.876099 
	C549.066711,606.290283 550.650452,606.273560 552.520508,605.957336 
z"/>
<path fill="#DD7421" opacity="1.000000" stroke="none" 
	d="
M594.328003,626.909851 
	C595.080505,624.891235 595.660400,622.272217 597.229919,620.560669 
	C600.855286,616.607239 600.418579,612.965759 597.655457,608.910034 
	C596.508301,607.226135 595.798218,605.244568 595.050659,603.141235 
	C598.072388,604.236206 601.009033,605.451721 603.764771,606.991150 
	C605.453918,607.934753 607.593201,609.103271 608.180298,610.675049 
	C608.683777,612.022827 607.762878,614.572083 606.611389,615.745850 
	C602.819763,619.610962 598.637329,623.092712 594.328003,626.909851 
z"/>
<path fill="#EC9E30" opacity="1.000000" stroke="none" 
	d="
M454.947205,515.181641 
	C434.741547,517.368408 417.266602,525.026611 401.943115,537.520752 
	C397.657593,541.015015 393.423981,541.214844 389.033051,538.778625 
	C381.620422,534.665894 373.999390,530.732910 367.254730,525.673035 
	C361.683624,521.493591 361.428619,517.361938 366.004639,512.770813 
	C386.491119,492.216614 410.740265,478.637085 439.444214,474.386963 
	C451.015991,472.673584 463.155426,472.915924 474.792358,474.308685 
	C480.657532,475.010681 486.578552,479.551056 491.428009,483.606903 
	C504.613617,494.634888 513.364258,508.904205 518.814270,525.140503 
	C519.429504,526.973450 519.295227,530.410522 518.205994,531.129089 
	C516.764099,532.080200 513.779236,531.663391 511.908752,530.826294 
	C503.450378,527.040833 495.413086,522.160706 486.725586,519.081421 
	C476.726715,515.537354 466.219543,513.339478 454.947205,515.181641 
z"/>
<path fill="#E97319" opacity="1.000000" stroke="none" 
	d="
M651.256958,732.240601 
	C645.234436,735.098145 641.129089,733.150757 637.507141,728.476318 
	C636.259216,726.865845 634.103516,725.859375 632.211487,724.863953 
	C622.047058,719.516235 620.190063,703.523010 628.921936,696.100220 
	C629.554993,695.562195 630.351990,695.098328 630.742615,694.412048 
	C636.330994,684.594482 645.918701,685.081726 655.245911,684.744446 
	C659.238037,684.600037 661.591736,686.514648 663.708740,689.737976 
	C665.645874,692.687439 668.144592,695.408386 670.860657,697.672302 
	C674.716980,700.886719 676.570068,707.554871 674.680115,713.741272 
	C672.137573,722.063782 660.555725,731.359802 651.256958,732.240601 
z"/>
<path fill="#E97319" opacity="1.000000" stroke="none" 
	d="
M756.526855,519.823853 
	C752.884766,518.461365 749.652527,517.149963 746.351746,516.043274 
	C740.362915,514.035461 736.951965,508.596680 738.096252,502.392242 
	C738.756226,498.814117 739.539429,495.247894 740.488220,491.736053 
	C742.761902,483.320251 750.519653,480.969025 757.153748,479.292694 
	C765.427673,477.201996 774.306763,479.738159 780.132263,486.071045 
	C785.425720,491.825653 787.797607,499.908295 785.636963,507.883179 
	C783.685547,515.085815 778.796204,520.098206 770.654785,520.318542 
	C766.078308,520.442383 761.489197,520.099792 756.526855,519.823853 
z"/>
<path fill="#EC9E30" opacity="1.000000" stroke="none" 
	d="
M294.147034,829.494019 
	C295.466980,827.630066 296.889771,826.060181 298.312531,824.490295 
	C298.936737,824.679993 299.560944,824.869751 300.185120,825.059448 
	C299.949921,827.986145 299.714691,830.912842 299.479462,833.839539 
	C297.736267,832.489075 295.993073,831.138611 294.147034,829.494019 
z"/>
<path fill="#000000" opacity="1.000000" stroke="none" 
	d="
M927.354797,810.354004 
	C927.270874,808.925659 927.226074,807.932373 927.209106,806.938599 
	C927.034119,796.674622 930.653809,794.116272 940.706482,797.394043 
	C945.912964,799.091736 947.448608,806.915771 943.373108,810.980530 
	C939.182129,815.160522 929.930054,815.049377 927.354797,810.354004 
z"/>
<path fill="#000000" opacity="1.000000" stroke="none" 
	d="
M536.189941,823.821411 
	C536.121521,816.515747 535.984070,809.689514 536.007324,802.863892 
	C536.025391,797.564636 537.350586,796.460449 542.673218,796.887634 
	C553.759583,797.777344 559.932800,808.520386 556.468628,820.895325 
	C554.082886,829.417786 548.982056,833.020203 540.210632,832.313904 
	C534.520508,831.855774 536.655640,827.412659 536.189941,823.821411 
z"/>
<path fill="#000000" opacity="1.000000" stroke="none" 
	d="
M610.561096,828.444153 
	C606.618225,833.093689 602.078064,833.851440 596.776978,832.167603 
	C591.725342,830.563049 589.081848,826.886536 588.228210,822.052368 
	C587.006470,815.132874 586.383850,808.265564 590.853516,801.875671 
	C596.130798,794.331238 606.385376,794.007324 611.076843,802.015503 
	C616.080078,810.555908 615.428223,819.479736 610.561096,828.444153 
z"/>
<path fill="#000000" opacity="1.000000" stroke="none" 
	d="
M229.012497,832.997498 
	C225.748428,831.571777 222.183243,830.787842 220.168320,828.585571 
	C214.090866,821.943054 214.115753,808.253662 219.591309,801.074463 
	C222.660904,797.049866 226.841095,796.065918 231.573318,796.756897 
	C236.040985,797.409363 239.155441,799.756836 240.704895,804.144531 
	C242.977463,810.580261 243.641663,816.940491 241.369827,823.605347 
	C239.359787,829.502319 235.707199,832.792664 229.012497,832.997498 
z"/>
<path fill="#E97319" opacity="1.000000" stroke="none" 
	d="
M939.753784,639.144104 
	C952.023743,645.071533 959.879333,655.010559 963.862915,666.961243 
	C966.141479,673.796875 964.689697,682.043640 964.164124,689.602722 
	C963.540466,698.573303 958.320801,705.805420 953.278259,712.768921 
	C948.445557,719.442566 941.420837,722.460388 932.595337,722.275452 
	C934.163574,717.730896 936.676086,713.748230 936.673035,709.767456 
	C936.666870,701.651001 936.696838,693.052124 934.094666,685.561218 
	C931.691101,678.642090 926.803955,671.957336 919.030029,669.048889 
	C905.998474,664.173462 892.910217,659.449585 879.842834,654.669983 
	C879.062195,654.384338 877.954346,654.420349 877.506897,653.883362 
	C871.486572,646.657654 861.300598,646.478394 854.704651,640.409241 
	C849.950073,636.034302 845.506287,631.287354 841.264160,626.410339 
	C839.965759,624.917603 839.261841,622.460754 839.199951,620.417664 
	C838.943604,611.960938 838.765320,603.483337 839.086243,595.033386 
	C839.359375,587.842224 844.669312,582.881104 848.353516,577.326721 
	C850.769714,573.684082 853.453247,569.988403 858.522644,569.112183 
	C862.572693,568.412170 864.308716,569.724670 863.474426,573.708740 
	C861.500671,583.134277 863.103760,591.938660 867.650574,600.416992 
	C869.189270,603.286194 869.360352,606.879150 870.845032,609.790161 
	C871.920349,611.898438 873.804810,614.262024 875.889404,615.077026 
	C887.732300,619.706970 899.772095,623.829712 911.689331,628.274109 
	C920.972046,631.736023 930.173645,635.415161 939.753784,639.144104 
z"/>
</svg>